<svg xmlns="http://www.w3.org/2000/svg" xmlns:xlink="http://www.w3.org/1999/xlink" width="292.5" height="116.9" style="overflow:visible;enable-background:new 0 0 292.5 116.9" xml:space="preserve"><style>.st1{clip-path:url(#SVGID_4_);fill:#e60012}</style><defs><path id="SVGID_1_" d="M0 0h292.5v116.9H0z"/></defs><clipPath id="SVGID_2_"><use xlink:href="#SVGID_1_" style="overflow:visible"/></clipPath><path d="M101.2 57.3v27.5c0 3.4-1.5 4.8-4.8 4.8H82.9c-3.4 0-4.8-1.5-4.8-4.8V61.2c0-8.8-3.1-12.4-8.4-12.5-2.2-.1-5.4 1-8.1 2.4 0 0 .9 3.7.7 25.9v7.8c0 3.4-1.5 4.8-4.8 4.8H44c-3.4 0-4.8-1.5-4.8-4.8V61.2c0-8.8-3.1-12.4-8.4-12.5-2.2-.1-5 .7-7.7 2.2v34c0 3.4-1.5 4.8-4.8 4.8H4.9c-3.4 0-4.8-1.5-4.8-4.8V37.3c0-3.1-.3-6.3.7-7.2 1.1-1.1 2.8-.8 4.3.2 2.5 1.5 7.3 3.6 11.9 3.6 3.7 0 5.8-.4 12.5-2.2 6.8-1.8 10.5-3.2 14.3-3.4 7.4-.5 14.7 2.2 15.7 7.6 8.3-5.3 15-6.7 21.6-6.7 5.3 0 10.3 1.6 13.6 4.6 5.3 4.6 6.5 11 6.5 23.5m179.7-34.2c6.4 0 11.6-5.2 11.6-11.6 0-6.4-5.2-11.6-11.6-11.6-6.4 0-11.6 5.2-11.6 11.6 0 6.4 5.2 11.6 11.6 11.6m6.7 66.5h-13.4c-3.4 0-4.8-1.5-4.8-4.8V37c0-3.4 1.5-4.8 4.8-4.8h13.4c3.4 0 4.8 1.5 4.8 4.8v47.8c.1 3.4-1.4 4.8-4.8 4.8M217 84.8V37c0-3.4-1.5-4.8-4.8-4.8h-13.4c-3.4 0-4.8 1.5-4.8 4.8v47.8c0 3.4 1.5 4.8 4.8 4.8h13.4c3.4 0 4.8-1.4 4.8-4.8m-23.1-73.2c0-6.4 5.2-11.6 11.6-11.6 6.4 0 11.6 5.2 11.6 11.6 0 6.4-5.2 11.6-11.6 11.6-6.4-.1-11.6-5.3-11.6-11.6M150 27.3c-21.8 0-37.8 12.9-37.8 32.6 0 19.5 13.6 31.7 33.2 33 8.5.6 23.7.1 32.2-12.1 1.9-2.9 2.8-5.8 2.7-7.5-.1-1.1-1.1-1.7-2.2-1.2-1 .4-10.8 7.1-24.4 5.3-8.2-1.1-15.9-6.5-16.2-14.5h40.7c3.4 0 4.8-1.5 4.8-4.8 0-15.2-11.8-30.8-33-30.8m10.4 24.1h-22.7c.6-4.1 4.5-10.5 12.6-10.5 7.6 0 10.5 6.7 10.1 10.5m83-28.3c6.4 0 11.6-5.2 11.6-11.6 0-6.4-5.2-11.6-11.6-11.6-6.4 0-11.6 5.2-11.6 11.6 0 6.4 5.2 11.6 11.6 11.6m11.5 61.8c0 4.3 0 6.6-.3 10.1-1.6 16-14.2 22-26 22-13.1 0-20.5-7-21.8-11.4-.3-.9.1-1.6.7-1.9.5-.2 1.2-.2 2.3.2 4.7 1.5 11.3 1.5 15.7-1.1 5.3-3 6.3-6.7 6.3-19.7V37c0-3.4 1.5-4.8 4.8-4.8H250c3.4 0 4.8 1.5 4.8 4.8v47.9z" style="clip-path:url(#SVGID_2_);fill:#ff0000"/></svg>