<svg xmlns="http://www.w3.org/2000/svg" width="106" height="212" style="overflow:visible;enable-background:new 0 0 106 212" xml:space="preserve"><style>.st0{fill:none}.st1{fill:#fff}</style><path class="st0" d="M0 0h106v106H0z"/><path class="st1" d="M38.1 64.9s1.9 1 4.2 2.3l11.9 6.7c2.3 1.3 4.2.2 4.2-2.5V34.6c0-2.7-1.9-3.8-4.2-2.5l-11.9 6.7c-2.3 1.3-4.2 2.3-4.2 2.3S36 41 33.3 41h-2.5c-2.7 0-4.8 1.6-4.8 3.5v16.8c0 2 2.1 3.5 4.8 3.5h2.5c2.6.2 4.8.2 4.8.1zm33.6-15.3-4.2-4.2c-.9-.9-2.5-.9-3.4 0-.9.9-.9 2.5 0 3.4l4.2 4.2-4.2 4.2c-.9.9-.9 2.5 0 3.4.9.9 2.5.9 3.4 0l4.2-4.2 4.2 4.2c.9.9 2.5.9 3.4 0 .5-.5.7-1.1.7-1.7 0-.6-.2-1.2-.7-1.7L75.1 53l4.2-4.2c.5-.5.7-1.1.7-1.7 0-.6-.2-1.2-.7-1.7-.9-.9-2.5-.9-3.4 0l-4.2 4.2z"/><path class="st0" d="M0 106h106v106H0z"/><path class="st1" d="M38.1 170.9s1.9 1 4.2 2.3l11.9 6.7c2.3 1.3 4.2.2 4.2-2.5v-36.8c0-2.7-1.9-3.8-4.2-2.5l-11.9 6.7c-2.3 1.3-4.2 2.3-4.2 2.3s-2.1-.1-4.8-.1h-2.5c-2.7 0-4.8 1.6-4.8 3.5v16.8c0 2 2.1 3.5 4.8 3.5h2.5c2.6.2 4.8.1 4.8.1z"/></svg>