<svg xmlns="http://www.w3.org/2000/svg" xmlns:xlink="http://www.w3.org/1999/xlink" width="237.2" height="764.7" style="overflow:visible;enable-background:new 0 0 237.2 764.7" xml:space="preserve"><style>.st0{clip-path:url(#SVGID_2_)}.st0,.st12,.st6{opacity:.5}.st6{clip-path:url(#SVGID_12_)}.st12{clip-path:url(#SVGID_22_)}.st18,.st24{clip-path:url(#SVGID_32_);opacity:.5}.st24{clip-path:url(#SVGID_42_)}</style><defs><path id="SVGID_1_" d="M0 0h237.2v152.5H0z"/></defs><clipPath id="SVGID_2_"><use xlink:href="#SVGID_1_" style="overflow:visible"/></clipPath><g class="st0"><defs><path id="SVGID_3_" d="M83.5 0h70.3v70.3H83.5z"/></defs><clipPath id="SVGID_4_"><use xlink:href="#SVGID_3_" style="overflow:visible"/></clipPath><path d="M141.8 70.3H95.5c-6.6 0-12-5.4-12-12V12c0-6.6 5.4-12 12-12h46.3c6.6 0 12 5.4 12 12v46.3c0 6.6-5.4 12-12 12" style="clip-path:url(#SVGID_4_);fill:#fff"/></g><g class="st0"><defs><path id="SVGID_5_" d="M83.5 82.2h70.3v70.3H83.5z"/></defs><clipPath id="SVGID_6_"><use xlink:href="#SVGID_5_" style="overflow:visible"/></clipPath><path d="M141.8 152.5H95.5c-6.6 0-12-5.4-12-12V94.2c0-6.6 5.4-12 12-12h46.3c6.6 0 12 5.4 12 12v46.3c0 6.6-5.4 12-12 12" style="clip-path:url(#SVGID_6_);fill:#fff"/></g><g class="st0"><defs><path id="SVGID_7_" d="M166.9 82.2h70.3v70.3h-70.3z"/></defs><clipPath id="SVGID_8_"><use xlink:href="#SVGID_7_" style="overflow:visible"/></clipPath><path d="M225.2 152.5h-46.3c-6.6 0-12-5.4-12-12V94.2c0-6.6 5.4-12 12-12h46.3c6.6 0 12 5.4 12 12v46.3c0 6.6-5.4 12-12 12" style="clip-path:url(#SVGID_8_);fill:#fff"/></g><g class="st0"><defs><path id="SVGID_9_" d="M0 82.2h70.3v70.3H0z"/></defs><clipPath id="SVGID_10_"><use xlink:href="#SVGID_9_" style="overflow:visible"/></clipPath><path d="M58.3 152.5H12c-6.6 0-12-5.4-12-12V94.2c0-6.6 5.4-12 12-12h46.3c6.6 0 12 5.4 12 12v46.3c0 6.6-5.4 12-12 12" style="clip-path:url(#SVGID_10_);fill:#fff"/></g><path d="m116.7 23.4-12.3 21.2c-.9 1.5.2 3.4 2 3.4h24.5c1.7 0 2.8-1.9 2-3.4l-12.3-21.2c-.9-1.5-3.1-1.5-3.9 0m3.9 105.7 12.3-21.2c.9-1.5-.2-3.4-2-3.4h-24.5c-1.7 0-2.8 1.9-2 3.4l12.3 21.2c.8 1.5 3 1.5 3.9 0m93.2-13.8L192.6 103c-1.5-.9-3.4.2-3.4 2v24.5c0 1.7 1.9 2.8 3.4 2l21.2-12.3c1.5-.8 1.5-3 0-3.9m-190.4 4 21.2 12.3c1.5.9 3.4-.2 3.4-2V105c0-1.7-1.9-2.8-3.4-2l-21.2 12.3c-1.5.9-1.5 3.1 0 4" style="fill:#fff;clip-path:url(#SVGID_2_)"/><defs><path id="SVGID_11_" d="M0 153.1h237.2v152.5H0z"/></defs><clipPath id="SVGID_12_"><use xlink:href="#SVGID_11_" style="overflow:visible"/></clipPath><g class="st6"><defs><path id="SVGID_13_" d="M83.5 153.1h70.3v70.3H83.5z"/></defs><clipPath id="SVGID_14_"><use xlink:href="#SVGID_13_" style="overflow:visible"/></clipPath><path d="M141.8 223.4H95.5c-6.6 0-12-5.4-12-12v-46.3c0-6.6 5.4-12 12-12h46.3c6.6 0 12 5.4 12 12v46.3c0 6.6-5.4 12-12 12" style="clip-path:url(#SVGID_14_);fill:#666"/></g><g class="st6"><defs><path id="SVGID_15_" d="M83.5 235.2h70.3v70.3H83.5z"/></defs><clipPath id="SVGID_16_"><use xlink:href="#SVGID_15_" style="overflow:visible"/></clipPath><path d="M141.8 305.5H95.5c-6.6 0-12-5.4-12-12v-46.3c0-6.6 5.4-12 12-12h46.3c6.6 0 12 5.4 12 12v46.3c0 6.6-5.4 12-12 12" style="clip-path:url(#SVGID_16_);fill:#fff"/></g><g class="st6"><defs><path id="SVGID_17_" d="M166.9 235.2h70.3v70.3h-70.3z"/></defs><clipPath id="SVGID_18_"><use xlink:href="#SVGID_17_" style="overflow:visible"/></clipPath><path d="M225.2 305.5h-46.3c-6.6 0-12-5.4-12-12v-46.3c0-6.6 5.4-12 12-12h46.3c6.6 0 12 5.4 12 12v46.3c0 6.6-5.4 12-12 12" style="clip-path:url(#SVGID_18_);fill:#fff"/></g><g class="st6"><defs><path id="SVGID_19_" d="M0 235.2h70.3v70.3H0z"/></defs><clipPath id="SVGID_20_"><use xlink:href="#SVGID_19_" style="overflow:visible"/></clipPath><path d="M58.3 305.5H12c-6.6 0-12-5.4-12-12v-46.3c0-6.6 5.4-12 12-12h46.3c6.6 0 12 5.4 12 12v46.3c0 6.6-5.4 12-12 12" style="clip-path:url(#SVGID_20_);fill:#fff"/></g><path d="m116.7 176.5-12.3 21.2c-.9 1.5.2 3.4 2 3.4h24.5c1.7 0 2.8-1.9 2-3.4l-12.3-21.2c-.9-1.5-3.1-1.5-3.9 0m3.9 105.6 12.3-21.2c.9-1.5-.2-3.4-2-3.4h-24.5c-1.7 0-2.8 1.9-2 3.4l12.3 21.2c.8 1.5 3 1.5 3.9 0m93.2-13.7-21.2-12.3c-1.5-.9-3.4.2-3.4 2v24.5c0 1.7 1.9 2.8 3.4 2l21.2-12.3c1.5-.8 1.5-3 0-3.9m-190.4 3.9 21.2 12.3c1.5.9 3.4-.2 3.4-2v-24.5c0-1.7-1.9-2.8-3.4-2l-21.2 12.3c-1.5.9-1.5 3.1 0 3.9" style="fill:#fff;clip-path:url(#SVGID_12_)"/><defs><path id="SVGID_21_" d="M0 306.1h237.2v152.5H0z"/></defs><clipPath id="SVGID_22_"><use xlink:href="#SVGID_21_" style="overflow:visible"/></clipPath><g class="st12"><defs><path id="SVGID_23_" d="M83.5 306.1h70.3v70.3H83.5z"/></defs><clipPath id="SVGID_24_"><use xlink:href="#SVGID_23_" style="overflow:visible"/></clipPath><path d="M141.8 376.4H95.5c-6.6 0-12-5.4-12-12v-46.3c0-6.6 5.4-12 12-12h46.3c6.6 0 12 5.4 12 12v46.3c0 6.6-5.4 12-12 12" style="clip-path:url(#SVGID_24_);fill:#fff"/></g><g class="st12"><defs><path id="SVGID_25_" d="M83.5 388.3h70.3v70.3H83.5z"/></defs><clipPath id="SVGID_26_"><use xlink:href="#SVGID_25_" style="overflow:visible"/></clipPath><path d="M141.8 458.6H95.5c-6.6 0-12-5.4-12-12v-46.3c0-6.6 5.4-12 12-12h46.3c6.6 0 12 5.4 12 12v46.3c0 6.6-5.4 12-12 12" style="clip-path:url(#SVGID_26_);fill:#666"/></g><g class="st12"><defs><path id="SVGID_27_" d="M166.9 388.3h70.3v70.3h-70.3z"/></defs><clipPath id="SVGID_28_"><use xlink:href="#SVGID_27_" style="overflow:visible"/></clipPath><path d="M225.2 458.6h-46.3c-6.6 0-12-5.4-12-12v-46.3c0-6.6 5.4-12 12-12h46.3c6.6 0 12 5.4 12 12v46.3c0 6.6-5.4 12-12 12" style="clip-path:url(#SVGID_28_);fill:#fff"/></g><g class="st12"><defs><path id="SVGID_29_" d="M0 388.3h70.3v70.3H0z"/></defs><clipPath id="SVGID_30_"><use xlink:href="#SVGID_29_" style="overflow:visible"/></clipPath><path d="M58.3 458.6H12c-6.6 0-12-5.4-12-12v-46.3c0-6.6 5.4-12 12-12h46.3c6.6 0 12 5.4 12 12v46.3c0 6.6-5.4 12-12 12" style="clip-path:url(#SVGID_30_);fill:#fff"/></g><path d="m116.7 329.5-12.3 21.2c-.9 1.5.2 3.4 2 3.4h24.5c1.7 0 2.8-1.9 2-3.4l-12.3-21.2c-.9-1.5-3.1-1.5-3.9 0m3.9 105.7 12.3-21.2c.9-1.5-.2-3.4-2-3.4h-24.5c-1.7 0-2.8 1.9-2 3.4l12.3 21.2c.8 1.5 3 1.5 3.9 0m93.2-13.7-21.2-12.3c-1.5-.9-3.4.2-3.4 2v24.5c0 1.7 1.9 2.8 3.4 2l21.2-12.3c1.5-.9 1.5-3 0-3.9m-190.4 3.9 21.2 12.3c1.5.9 3.4-.2 3.4-2v-24.5c0-1.7-1.9-2.8-3.4-2l-21.2 12.3c-1.5.9-1.5 3 0 3.9" style="fill:#fff;clip-path:url(#SVGID_22_)"/><defs><path id="SVGID_31_" d="M0 459.2h237.2v152.5H0z"/></defs><clipPath id="SVGID_32_"><use xlink:href="#SVGID_31_" style="overflow:visible"/></clipPath><g class="st18"><defs><path id="SVGID_33_" d="M83.5 459.2h70.3v70.3H83.5z"/></defs><clipPath id="SVGID_34_"><use xlink:href="#SVGID_33_" style="overflow:visible"/></clipPath><path d="M141.8 529.5H95.5c-6.6 0-12-5.4-12-12v-46.3c0-6.6 5.4-12 12-12h46.3c6.6 0 12 5.4 12 12v46.3c0 6.6-5.4 12-12 12" style="clip-path:url(#SVGID_34_);fill:#fff"/></g><g class="st18"><defs><path id="SVGID_35_" d="M83.5 541.4h70.3v70.3H83.5z"/></defs><clipPath id="SVGID_36_"><use xlink:href="#SVGID_35_" style="overflow:visible"/></clipPath><path d="M141.8 611.7H95.5c-6.6 0-12-5.4-12-12v-46.3c0-6.6 5.4-12 12-12h46.3c6.6 0 12 5.4 12 12v46.3c0 6.6-5.4 12-12 12" style="clip-path:url(#SVGID_36_);fill:#fff"/></g><g class="st18"><defs><path id="SVGID_37_" d="M166.9 541.4h70.3v70.3h-70.3z"/></defs><clipPath id="SVGID_38_"><use xlink:href="#SVGID_37_" style="overflow:visible"/></clipPath><path d="M225.2 611.7h-46.3c-6.6 0-12-5.4-12-12v-46.3c0-6.6 5.4-12 12-12h46.3c6.6 0 12 5.4 12 12v46.3c0 6.6-5.4 12-12 12" style="clip-path:url(#SVGID_38_);fill:#fff"/></g><g class="st18"><defs><path id="SVGID_39_" d="M0 541.4h70.3v70.3H0z"/></defs><clipPath id="SVGID_40_"><use xlink:href="#SVGID_39_" style="overflow:visible"/></clipPath><path d="M58.3 611.7H12c-6.6 0-12-5.4-12-12v-46.3c0-6.6 5.4-12 12-12h46.3c6.6 0 12 5.4 12 12v46.3c0 6.6-5.4 12-12 12" style="clip-path:url(#SVGID_40_);fill:#666"/></g><path d="m116.7 482.6-12.3 21.2c-.9 1.5.2 3.4 2 3.4h24.5c1.7 0 2.8-1.9 2-3.4l-12.3-21.2c-.9-1.5-3.1-1.5-3.9 0m3.9 105.7 12.3-21.2c.9-1.5-.2-3.4-2-3.4h-24.5c-1.7 0-2.8 1.9-2 3.4l12.3 21.2c.8 1.5 3 1.5 3.9 0m93.2-13.7-21.2-12.3c-1.5-.9-3.4.2-3.4 2v24.5c0 1.7 1.9 2.8 3.4 2l21.2-12.3c1.5-.9 1.5-3.1 0-3.9m-190.4 3.9 21.2 12.3c1.5.9 3.4-.2 3.4-2v-24.5c0-1.7-1.9-2.8-3.4-2l-21.2 12.3c-1.5.8-1.5 3 0 3.9" style="fill:#fff;clip-path:url(#SVGID_32_)"/><defs><path id="SVGID_41_" d="M0 612.3h237.2v152.5H0z"/></defs><clipPath id="SVGID_42_"><use xlink:href="#SVGID_41_" style="overflow:visible"/></clipPath><g class="st24"><defs><path id="SVGID_43_" d="M83.5 612.3h70.3v70.3H83.5z"/></defs><clipPath id="SVGID_44_"><use xlink:href="#SVGID_43_" style="overflow:visible"/></clipPath><path d="M141.8 682.6H95.5c-6.6 0-12-5.4-12-12v-46.3c0-6.6 5.4-12 12-12h46.3c6.6 0 12 5.4 12 12v46.3c0 6.6-5.4 12-12 12" style="clip-path:url(#SVGID_44_);fill:#fff"/></g><g class="st24"><defs><path id="SVGID_45_" d="M83.5 694.4h70.3v70.3H83.5z"/></defs><clipPath id="SVGID_46_"><use xlink:href="#SVGID_45_" style="overflow:visible"/></clipPath><path d="M141.8 764.7H95.5c-6.6 0-12-5.4-12-12v-46.3c0-6.6 5.4-12 12-12h46.3c6.6 0 12 5.4 12 12v46.3c0 6.6-5.4 12-12 12" style="clip-path:url(#SVGID_46_);fill:#fff"/></g><g class="st24"><defs><path id="SVGID_47_" d="M166.9 694.4h70.3v70.3h-70.3z"/></defs><clipPath id="SVGID_48_"><use xlink:href="#SVGID_47_" style="overflow:visible"/></clipPath><path d="M225.2 764.7h-46.3c-6.6 0-12-5.4-12-12v-46.3c0-6.6 5.4-12 12-12h46.3c6.6 0 12 5.4 12 12v46.3c0 6.6-5.4 12-12 12" style="clip-path:url(#SVGID_48_);fill:#666"/></g><g class="st24"><defs><path id="SVGID_49_" d="M0 694.4h70.3v70.3H0z"/></defs><clipPath id="SVGID_50_"><use xlink:href="#SVGID_49_" style="overflow:visible"/></clipPath><path d="M58.3 764.7H12c-6.6 0-12-5.4-12-12v-46.3c0-6.6 5.4-12 12-12h46.3c6.6 0 12 5.4 12 12v46.3c0 6.6-5.4 12-12 12" style="clip-path:url(#SVGID_50_);fill:#fff"/></g><path d="m116.7 635.7-12.3 21.2c-.9 1.5.2 3.4 2 3.4h24.5c1.7 0 2.8-1.9 2-3.4l-12.3-21.2c-.9-1.5-3.1-1.5-3.9 0m3.9 105.6 12.3-21.2c.9-1.5-.2-3.4-2-3.4h-24.5c-1.7 0-2.8 1.9-2 3.4l12.3 21.2c.8 1.5 3 1.5 3.9 0m93.2-13.7-21.2-12.3c-1.5-.9-3.4.2-3.4 2v24.5c0 1.7 1.9 2.8 3.4 2l21.2-12.3c1.5-.8 1.5-3 0-3.9m-190.4 3.9 21.2 12.3c1.5.9 3.4-.2 3.4-2v-24.5c0-1.7-1.9-2.8-3.4-2l-21.2 12.3c-1.5.9-1.5 3.1 0 3.9" style="fill:#fff;clip-path:url(#SVGID_42_)"/></svg>