<svg xmlns="http://www.w3.org/2000/svg" xmlns:xlink="http://www.w3.org/1999/xlink" width="255.1" height="850.4" style="overflow:visible;enable-background:new 0 0 255.1 850.4" xml:space="preserve"><style>.st0{fill:none}.st1{clip-path:url(#SVGID_2_)}.st1,.st13,.st7{opacity:.5}.st7{clip-path:url(#SVGID_12_)}.st13{clip-path:url(#SVGID_22_)}.st19,.st25{clip-path:url(#SVGID_32_);opacity:.5}.st25{clip-path:url(#SVGID_42_)}</style><path class="st0" d="M0 0h255.1v170.1H0z"/><defs><path id="SVGID_1_" d="M9 8.8h237.2v152.5H9z"/></defs><clipPath id="SVGID_2_"><use xlink:href="#SVGID_1_" style="overflow:visible"/></clipPath><g class="st1"><defs><path id="SVGID_3_" d="M92.4 8.8h70.3v70.3H92.4z"/></defs><clipPath id="SVGID_4_"><use xlink:href="#SVGID_3_" style="overflow:visible"/></clipPath><path d="M150.7 79.1h-46.3c-6.6 0-12-5.4-12-12V20.8c0-6.6 5.4-12 12-12h46.3c6.6 0 12 5.4 12 12v46.3c0 6.6-5.4 12-12 12" style="clip-path:url(#SVGID_4_);fill:#fff"/></g><g class="st1"><defs><path id="SVGID_5_" d="M92.4 91h70.3v70.3H92.4z"/></defs><clipPath id="SVGID_6_"><use xlink:href="#SVGID_5_" style="overflow:visible"/></clipPath><path d="M150.7 161.3h-46.3c-6.6 0-12-5.4-12-12V103c0-6.6 5.4-12 12-12h46.3c6.6 0 12 5.4 12 12v46.3c0 6.6-5.4 12-12 12" style="clip-path:url(#SVGID_6_);fill:#fff"/></g><g class="st1"><defs><path id="SVGID_7_" d="M175.9 91h70.3v70.3h-70.3z"/></defs><clipPath id="SVGID_8_"><use xlink:href="#SVGID_7_" style="overflow:visible"/></clipPath><path d="M234.2 161.3h-46.3c-6.6 0-12-5.4-12-12V103c0-6.6 5.4-12 12-12h46.3c6.6 0 12 5.4 12 12v46.3c0 6.6-5.4 12-12 12" style="clip-path:url(#SVGID_8_);fill:#fff"/></g><g class="st1"><defs><path id="SVGID_9_" d="M9 91h70.3v70.3H9z"/></defs><clipPath id="SVGID_10_"><use xlink:href="#SVGID_9_" style="overflow:visible"/></clipPath><path d="M67.3 161.3H21c-6.6 0-12-5.4-12-12V103c0-6.6 5.4-12 12-12h46.3c6.6 0 12 5.4 12 12v46.3c0 6.6-5.4 12-12 12" style="clip-path:url(#SVGID_10_);fill:#fff"/></g><path d="m125.6 32.2-12.3 21.2c-.9 1.5.2 3.4 2 3.4h24.5c1.7 0 2.8-1.9 2-3.4l-12.3-21.2c-.9-1.5-3-1.5-3.9 0m3.9 105.7 12.3-21.2c.9-1.5-.2-3.4-2-3.4h-24.5c-1.7 0-2.8 1.9-2 3.4l12.3 21.2c.9 1.5 3 1.5 3.9 0m93.3-13.7-21.2-12.3c-1.5-.9-3.4.2-3.4 2v24.5c0 1.7 1.9 2.8 3.4 2l21.2-12.3c1.5-.9 1.5-3.1 0-3.9m-190.4 3.9 21.2 12.3c1.5.9 3.4-.2 3.4-2v-24.5c0-1.7-1.9-2.8-3.4-2l-21.2 12.3c-1.6.8-1.6 3 0 3.9" style="fill:#fff;clip-path:url(#SVGID_2_)"/><path class="st0" d="M0 170.1h255.1v170.1H0z"/><defs><path id="SVGID_11_" d="M9 178.9h237.2v152.5H9z"/></defs><clipPath id="SVGID_12_"><use xlink:href="#SVGID_11_" style="overflow:visible"/></clipPath><g class="st7"><defs><path id="SVGID_13_" d="M92.4 178.9h70.3v70.3H92.4z"/></defs><clipPath id="SVGID_14_"><use xlink:href="#SVGID_13_" style="overflow:visible"/></clipPath><path d="M150.7 249.2h-46.3c-6.6 0-12-5.4-12-12v-46.3c0-6.6 5.4-12 12-12h46.3c6.6 0 12 5.4 12 12v46.3c0 6.6-5.4 12-12 12" style="clip-path:url(#SVGID_14_);fill:#666"/></g><g class="st7"><defs><path id="SVGID_15_" d="M92.4 261h70.3v70.3H92.4z"/></defs><clipPath id="SVGID_16_"><use xlink:href="#SVGID_15_" style="overflow:visible"/></clipPath><path d="M150.7 331.3h-46.3c-6.6 0-12-5.4-12-12V273c0-6.6 5.4-12 12-12h46.3c6.6 0 12 5.4 12 12v46.3c0 6.6-5.4 12-12 12" style="clip-path:url(#SVGID_16_);fill:#fff"/></g><g class="st7"><defs><path id="SVGID_17_" d="M175.9 261h70.3v70.3h-70.3z"/></defs><clipPath id="SVGID_18_"><use xlink:href="#SVGID_17_" style="overflow:visible"/></clipPath><path d="M234.2 331.3h-46.3c-6.6 0-12-5.4-12-12V273c0-6.6 5.4-12 12-12h46.3c6.6 0 12 5.4 12 12v46.3c0 6.6-5.4 12-12 12" style="clip-path:url(#SVGID_18_);fill:#fff"/></g><g class="st7"><defs><path id="SVGID_19_" d="M9 261h70.3v70.3H9z"/></defs><clipPath id="SVGID_20_"><use xlink:href="#SVGID_19_" style="overflow:visible"/></clipPath><path d="M67.3 331.3H21c-6.6 0-12-5.4-12-12V273c0-6.6 5.4-12 12-12h46.3c6.6 0 12 5.4 12 12v46.3c0 6.6-5.4 12-12 12" style="clip-path:url(#SVGID_20_);fill:#fff"/></g><path d="m125.6 202.3-12.3 21.2c-.9 1.5.2 3.4 2 3.4h24.5c1.7 0 2.8-1.9 2-3.4l-12.3-21.2c-.9-1.5-3-1.5-3.9 0m3.9 105.6 12.3-21.2c.9-1.5-.2-3.4-2-3.4h-24.5c-1.7 0-2.8 1.9-2 3.4l12.3 21.2c.9 1.5 3 1.5 3.9 0m93.3-13.7L201.5 282c-1.5-.9-3.4.2-3.4 2v24.5c0 1.7 1.9 2.8 3.4 2l21.2-12.3c1.6-.9 1.6-3.1.1-4m-190.4 3.9 21.2 12.3c1.5.9 3.4-.2 3.4-2v-24.5c0-1.7-1.9-2.8-3.4-2l-21.2 12.3c-1.6.9-1.6 3.1 0 3.9" style="fill:#fff;clip-path:url(#SVGID_12_)"/><path class="st0" d="M0 340.2h255.1v170.1H0z"/><defs><path id="SVGID_21_" d="M9 349h237.2v152.5H9z"/></defs><clipPath id="SVGID_22_"><use xlink:href="#SVGID_21_" style="overflow:visible"/></clipPath><g class="st13"><defs><path id="SVGID_23_" d="M92.4 349h70.3v70.3H92.4z"/></defs><clipPath id="SVGID_24_"><use xlink:href="#SVGID_23_" style="overflow:visible"/></clipPath><path d="M150.7 419.3h-46.3c-6.6 0-12-5.4-12-12V361c0-6.6 5.4-12 12-12h46.3c6.6 0 12 5.4 12 12v46.3c0 6.6-5.4 12-12 12" style="clip-path:url(#SVGID_24_);fill:#fff"/></g><g class="st13"><defs><path id="SVGID_25_" d="M92.4 431.1h70.3v70.3H92.4z"/></defs><clipPath id="SVGID_26_"><use xlink:href="#SVGID_25_" style="overflow:visible"/></clipPath><path d="M150.7 501.4h-46.3c-6.6 0-12-5.4-12-12v-46.3c0-6.6 5.4-12 12-12h46.3c6.6 0 12 5.4 12 12v46.3c0 6.6-5.4 12-12 12" style="clip-path:url(#SVGID_26_);fill:#666"/></g><g class="st13"><defs><path id="SVGID_27_" d="M175.9 431.1h70.3v70.3h-70.3z"/></defs><clipPath id="SVGID_28_"><use xlink:href="#SVGID_27_" style="overflow:visible"/></clipPath><path d="M234.2 501.4h-46.3c-6.6 0-12-5.4-12-12v-46.3c0-6.6 5.4-12 12-12h46.3c6.6 0 12 5.4 12 12v46.3c0 6.6-5.4 12-12 12" style="clip-path:url(#SVGID_28_);fill:#fff"/></g><g class="st13"><defs><path id="SVGID_29_" d="M9 431.1h70.3v70.3H9z"/></defs><clipPath id="SVGID_30_"><use xlink:href="#SVGID_29_" style="overflow:visible"/></clipPath><path d="M67.3 501.4H21c-6.6 0-12-5.4-12-12v-46.3c0-6.6 5.4-12 12-12h46.3c6.6 0 12 5.4 12 12v46.3c0 6.6-5.4 12-12 12" style="clip-path:url(#SVGID_30_);fill:#fff"/></g><path d="m125.6 372.4-12.3 21.2c-.9 1.5.2 3.4 2 3.4h24.5c1.7 0 2.8-1.9 2-3.4l-12.3-21.2c-.9-1.5-3-1.5-3.9 0m3.9 105.6 12.3-21.2c.9-1.5-.2-3.4-2-3.4h-24.5c-1.7 0-2.8 1.9-2 3.4l12.3 21.2c.9 1.5 3 1.5 3.9 0m93.3-13.7L201.6 452c-1.5-.9-3.4.2-3.4 2v24.5c0 1.7 1.9 2.8 3.4 2l21.2-12.3c1.5-.8 1.5-3 0-3.9m-190.4 3.9 21.2 12.3c1.5.9 3.4-.2 3.4-2V454c0-1.7-1.9-2.8-3.4-2l-21.2 12.3c-1.6.9-1.6 3.1 0 3.9" style="fill:#fff;clip-path:url(#SVGID_22_)"/><path class="st0" d="M0 510.2h255.1v170.1H0z"/><defs><path id="SVGID_31_" d="M9 519h237.2v152.5H9z"/></defs><clipPath id="SVGID_32_"><use xlink:href="#SVGID_31_" style="overflow:visible"/></clipPath><g class="st19"><defs><path id="SVGID_33_" d="M92.4 519h70.3v70.3H92.4z"/></defs><clipPath id="SVGID_34_"><use xlink:href="#SVGID_33_" style="overflow:visible"/></clipPath><path d="M150.7 589.4h-46.3c-6.6 0-12-5.4-12-12V531c0-6.6 5.4-12 12-12h46.3c6.6 0 12 5.4 12 12v46.3c0 6.7-5.4 12.1-12 12.1" style="clip-path:url(#SVGID_34_);fill:#fff"/></g><g class="st19"><defs><path id="SVGID_35_" d="M92.4 601.2h70.3v70.3H92.4z"/></defs><clipPath id="SVGID_36_"><use xlink:href="#SVGID_35_" style="overflow:visible"/></clipPath><path d="M150.7 671.5h-46.3c-6.6 0-12-5.4-12-12v-46.3c0-6.6 5.4-12 12-12h46.3c6.6 0 12 5.4 12 12v46.3c0 6.6-5.4 12-12 12" style="clip-path:url(#SVGID_36_);fill:#fff"/></g><g class="st19"><defs><path id="SVGID_37_" d="M175.9 601.2h70.3v70.3h-70.3z"/></defs><clipPath id="SVGID_38_"><use xlink:href="#SVGID_37_" style="overflow:visible"/></clipPath><path d="M234.2 671.5h-46.3c-6.6 0-12-5.4-12-12v-46.3c0-6.6 5.4-12 12-12h46.3c6.6 0 12 5.4 12 12v46.3c0 6.6-5.4 12-12 12" style="clip-path:url(#SVGID_38_);fill:#fff"/></g><g class="st19"><defs><path id="SVGID_39_" d="M9 601.2h70.3v70.3H9z"/></defs><clipPath id="SVGID_40_"><use xlink:href="#SVGID_39_" style="overflow:visible"/></clipPath><path d="M67.3 671.5H21c-6.6 0-12-5.4-12-12v-46.3c0-6.6 5.4-12 12-12h46.3c6.6 0 12 5.4 12 12v46.3c0 6.6-5.4 12-12 12" style="clip-path:url(#SVGID_40_);fill:#666"/></g><path d="m125.6 542.5-12.3 21.2c-.9 1.5.2 3.4 2 3.4h24.5c1.7 0 2.8-1.9 2-3.4l-12.3-21.2c-.9-1.6-3-1.6-3.9 0m3.9 105.6 12.3-21.2c.9-1.5-.2-3.4-2-3.4h-24.5c-1.7 0-2.8 1.9-2 3.4l12.3 21.2c.9 1.5 3 1.5 3.9 0m93.3-13.7-21.2-12.3c-1.5-.9-3.4.2-3.4 2v24.5c0 1.7 1.9 2.8 3.4 2l21.2-12.3c1.5-.9 1.5-3 0-3.9m-190.4 3.9 21.2 12.3c1.5.9 3.4-.2 3.4-2v-24.5c0-1.7-1.9-2.8-3.4-2l-21.2 12.3c-1.6.9-1.6 3 0 3.9" style="fill:#fff;clip-path:url(#SVGID_32_)"/><path class="st0" d="M0 680.3h255.1v170.1H0z"/><defs><path id="SVGID_41_" d="M9 689.1h237.2v152.5H9z"/></defs><clipPath id="SVGID_42_"><use xlink:href="#SVGID_41_" style="overflow:visible"/></clipPath><g class="st25"><defs><path id="SVGID_43_" d="M92.4 689.1h70.3v70.3H92.4z"/></defs><clipPath id="SVGID_44_"><use xlink:href="#SVGID_43_" style="overflow:visible"/></clipPath><path d="M150.7 759.4h-46.3c-6.6 0-12-5.4-12-12v-46.3c0-6.6 5.4-12 12-12h46.3c6.6 0 12 5.4 12 12v46.3c0 6.6-5.4 12-12 12" style="clip-path:url(#SVGID_44_);fill:#fff"/></g><g class="st25"><defs><path id="SVGID_45_" d="M92.4 771.3h70.3v70.3H92.4z"/></defs><clipPath id="SVGID_46_"><use xlink:href="#SVGID_45_" style="overflow:visible"/></clipPath><path d="M150.7 841.6h-46.3c-6.6 0-12-5.4-12-12v-46.3c0-6.6 5.4-12 12-12h46.3c6.6 0 12 5.4 12 12v46.3c0 6.6-5.4 12-12 12" style="clip-path:url(#SVGID_46_);fill:#fff"/></g><g class="st25"><defs><path id="SVGID_47_" d="M175.9 771.3h70.3v70.3h-70.3z"/></defs><clipPath id="SVGID_48_"><use xlink:href="#SVGID_47_" style="overflow:visible"/></clipPath><path d="M234.2 841.6h-46.3c-6.6 0-12-5.4-12-12v-46.3c0-6.6 5.4-12 12-12h46.3c6.6 0 12 5.4 12 12v46.3c0 6.6-5.4 12-12 12" style="clip-path:url(#SVGID_48_);fill:#666"/></g><g class="st25"><defs><path id="SVGID_49_" d="M9 771.3h70.3v70.3H9z"/></defs><clipPath id="SVGID_50_"><use xlink:href="#SVGID_49_" style="overflow:visible"/></clipPath><path d="M67.3 841.6H21c-6.6 0-12-5.4-12-12v-46.3c0-6.6 5.4-12 12-12h46.3c6.6 0 12 5.4 12 12v46.3c0 6.6-5.4 12-12 12" style="clip-path:url(#SVGID_50_);fill:#fff"/></g><path d="m125.6 712.5-12.3 21.2c-.9 1.5.2 3.4 2 3.4h24.5c1.7 0 2.8-1.9 2-3.4l-12.3-21.2c-.9-1.5-3-1.5-3.9 0m3.9 105.7 12.3-21.2c.9-1.5-.2-3.4-2-3.4h-24.5c-1.7 0-2.8 1.9-2 3.4l12.3 21.2c.9 1.5 3 1.5 3.9 0m93.3-13.7-21.2-12.3c-1.5-.9-3.4.2-3.4 2v24.5c0 1.7 1.9 2.8 3.4 2l21.2-12.3c1.5-.9 1.5-3.1 0-3.9m-190.4 3.9 21.2 12.3c1.5.9 3.4-.2 3.4-2v-24.5c0-1.7-1.9-2.8-3.4-2l-21.2 12.3c-1.6.8-1.6 3 0 3.9" style="fill:#fff;clip-path:url(#SVGID_42_)"/></svg>